<svg xmlns="http://www.w3.org/2000/svg" width="35.057" height="55.089" viewBox="0 0 35.057 55.089">
  <g id="blood-svgrepo-com" transform="translate(-93.091)">
    <g id="Group_4" data-name="Group 4" transform="translate(104.359 11.3)">
      <g id="Group_3" data-name="Group 3">
        <path id="Path_4" data-name="Path 4" d="M205.08,105.488a1.3,1.3,0,0,0-2,0c-.5.751-5.259,7.262-5.259,11.018a6.07,6.07,0,0,0,6.26,6.01,6.149,6.149,0,0,0,6.26-6.01C210.338,112.75,205.581,106.239,205.08,105.488Zm-1,14.524a3.641,3.641,0,0,1-3.756-3.506c0-1.878,2-5.384,3.756-8.013,1.753,2.5,3.756,6.135,3.756,8.013A3.562,3.562,0,0,1,204.078,120.012Z" transform="translate(-197.818 -105.019)" fill="#d50101"/>
      </g>
    </g>
    <g id="Group_6" data-name="Group 6" transform="translate(93.091)">
      <g id="Group_5" data-name="Group 5">
        <path id="Path_5" data-name="Path 5" d="M124.392,0H96.847a3.689,3.689,0,0,0-3.756,3.756v31.3a6.2,6.2,0,0,0,6.26,6.26h16.276v2.5a1.183,1.183,0,0,1-1.252,1.252h-7.512a1.183,1.183,0,0,1-1.252-1.252,1.252,1.252,0,1,0-2.5,0,3.689,3.689,0,0,0,3.756,3.756h2.5v2.5a5.023,5.023,0,0,0,5.008,5.008,1.252,1.252,0,0,0,0-2.5,2.511,2.511,0,0,1-2.5-2.5v-2.5h2.5a3.689,3.689,0,0,0,3.756-3.756V40.065a1.183,1.183,0,0,0-1.252-1.252H99.351A3.689,3.689,0,0,1,95.6,35.057V3.756A1.183,1.183,0,0,1,96.847,2.5h27.545a1.183,1.183,0,0,1,1.252,1.252V8.764h-2.5a1.183,1.183,0,0,0-1.252,1.252,1.183,1.183,0,0,0,1.252,1.252h2.5v5.008h-3.756a1.252,1.252,0,1,0,0,2.5h3.756v5.008h-2.5a1.252,1.252,0,1,0,0,2.5h2.5V31.3h-3.756a1.252,1.252,0,1,0,0,2.5h3.756v1.252a3.689,3.689,0,0,1-3.756,3.756,1.252,1.252,0,0,0,0,2.5,6.2,6.2,0,0,0,6.26-6.26V3.756A3.689,3.689,0,0,0,124.392,0Z" transform="translate(-93.091)" fill="#d50101"/>
      </g>
    </g>
  </g>
</svg>
