<svg xmlns="http://www.w3.org/2000/svg" width="35.057" height="48.178" viewBox="0 0 35.057 48.178">
  <g id="location-svgrepo-com_1_" data-name="location-svgrepo-com (1)" transform="translate(-41.103)">
    <g id="Group_2" data-name="Group 2" transform="translate(41.103)">
      <g id="Group_1" data-name="Group 1" transform="translate(0)">
        <path id="Path_1" data-name="Path 1" d="M58.631,0A17.687,17.687,0,0,0,41.1,17.8c0,9.5,15.98,29.131,16.66,29.962a1.118,1.118,0,0,0,1.737,0c.68-.831,16.66-20.458,16.66-29.962A17.687,17.687,0,0,0,58.631,0Zm0,45.21c-1.417-1.8-4.361-5.625-7.274-10-5.231-7.858-8-13.877-8-17.406a15.271,15.271,0,1,1,30.539,0c0,3.529-2.765,9.547-8,17.406C62.992,39.585,60.048,43.413,58.631,45.21Z" transform="translate(-41.103)" fill="#d50101"/>
        <path id="Path_2" data-name="Path 2" d="M156.875,212.864a1.129,1.129,0,0,0-1.568.3c-1.524,2.256-3.232,4.621-5.075,7.028a1.129,1.129,0,1,0,1.793,1.373c1.87-2.443,3.6-4.844,5.153-7.137A1.129,1.129,0,0,0,156.875,212.864Z" transform="translate(-133.6 -179.903)" fill="#d50101"/>
        <path id="Path_3" data-name="Path 3" d="M105.261,57.5a9.261,9.261,0,1,0,9.261,9.261A9.272,9.272,0,0,0,105.261,57.5Zm0,16.264a7,7,0,1,1,7-7A7.01,7.01,0,0,1,105.261,73.764Z" transform="translate(-87.733 -48.619)" fill="#d50101"/>
      </g>
    </g>
  </g>
</svg>
