<svg xmlns="http://www.w3.org/2000/svg" xmlns:xlink="http://www.w3.org/1999/xlink" width="165.499" height="102.838" viewBox="0 0 165.499 102.838">
  <defs>
    <linearGradient id="linear-gradient" x1="-0.542" y1="0.5" x2="1.58" y2="0.568" gradientUnits="objectBoundingBox">
      <stop offset="0" stop-color="#ffcd00"/>
      <stop offset="1" stop-color="#f79200"/>
      <stop offset="1" stop-color="#f68800"/>
    </linearGradient>
  </defs>
  <g id="XMLID_1718_" transform="translate(0 -75.251)">
    <g id="XMLID_1719_" transform="translate(52.39 75.251)">
      <path id="XMLID_50_" d="M188.224,179.761H135.833V98.173A12.922,12.922,0,0,1,148.756,85.25H175.3a12.922,12.922,0,0,1,12.923,12.923Z" transform="translate(-131.67 -81.087)" fill="url(#linear-gradient)"/>
      <path id="XMLID_1720_" d="M186.551,178.088H125.833V92.337a17.105,17.105,0,0,1,17.086-17.086h26.545a17.105,17.105,0,0,1,17.086,17.086Zm-52.391-8.327h44.063V92.337a8.769,8.769,0,0,0-8.759-8.759H142.919a8.769,8.769,0,0,0-8.759,8.759v77.425Z" transform="translate(-125.833 -75.251)" fill="#555c84"/>
    </g>
    <g id="XMLID_1723_" transform="translate(104.781 108.142)">
      <path id="XMLID_1724_" d="M312.384,224.2H251.667V154.25H295.3a17.105,17.105,0,0,1,17.086,17.086h-8.327a8.769,8.769,0,0,0-8.759-8.759h-35.3v53.293h44.063V193.477h8.327Z" transform="translate(-251.667 -154.25)" fill="#555c84"/>
    </g>
    <g id="XMLID_1725_" transform="translate(0 99.816)">
      <path id="XMLID_1726_" d="M60.717,212.524H0V151.337a17.105,17.105,0,0,1,17.086-17.086H60.718v78.273h0ZM8.327,204.2H52.39V142.578h-35.3a8.769,8.769,0,0,0-8.759,8.759S8.327,204.2,8.327,204.2Z" transform="translate(0 -134.251)" fill="#555c84"/>
    </g>
    <g id="XMLID_1729_" transform="translate(72.581 111.183)">
      <path id="XMLID_1730_" d="M194.664,180.767v6.479H175.228v-6.479h6.389V169.294a5,5,0,0,1-1.259,1.1,13.448,13.448,0,0,1-1.912,1.035,14.2,14.2,0,0,1-2.16.765,7.731,7.731,0,0,1-1.957.292v-6.659a5,5,0,0,0,1.867-.495,17.313,17.313,0,0,0,2.272-1.192,20.752,20.752,0,0,0,2.025-1.417,4.257,4.257,0,0,0,1.125-1.17h7.334v19.211h5.714Z" transform="translate(-174.328 -161.555)" fill="#555c84"/>
    </g>
    <g id="XMLID_1732_" transform="translate(19.156 132.61)">
      <path id="XMLID_1733_" d="M46.009,239.156a20.434,20.434,0,0,1,.315-3.779,9.991,9.991,0,0,1,1.08-3.037,9.884,9.884,0,0,1,2.07-2.542,18.933,18.933,0,0,1,3.285-2.294q2.114-1.169,3.532-1.934a23.169,23.169,0,0,0,2.25-1.35,5.472,5.472,0,0,0,1.192-1.058,1.767,1.767,0,0,0,.36-1.1,2.528,2.528,0,0,0-.9-2.025,3.853,3.853,0,0,0-2.565-.765,5.818,5.818,0,0,0-3.284.922,13.67,13.67,0,0,0-2.7,2.407l-4.589-5.309a8.965,8.965,0,0,1,1.935-1.575,16.756,16.756,0,0,1,2.745-1.372,19.106,19.106,0,0,1,3.352-.967,19.589,19.589,0,0,1,3.8-.36q4.859,0,7.446,2.115a7.629,7.629,0,0,1,2.115,8.369,7.859,7.859,0,0,1-1.237,2.092,9.7,9.7,0,0,1-1.71,1.62,22.568,22.568,0,0,1-1.934,1.282q-.675.4-1.62.945t-1.867,1.1q-.923.563-1.71,1.125a7.53,7.53,0,0,0-1.192,1.012H68.415v6.479H46.009Z" transform="translate(-46.009 -213.017)" fill="#fac300"/>
    </g>
    <g id="XMLID_1735_" transform="translate(125.073 131.38)">
      <path id="XMLID_1736_" d="M315,223.474a6.963,6.963,0,0,1,2.255.85,6.4,6.4,0,0,1,1.76,1.543A6.907,6.907,0,0,1,320.143,228a8.285,8.285,0,0,1,.4,2.591,7.294,7.294,0,0,1-.752,3.342,7.2,7.2,0,0,1-2.156,2.531,10.491,10.491,0,0,1-3.382,1.622,15.912,15.912,0,0,1-4.43.573q-6.013,0-9.414-3.52l3.4-4.509a7.258,7.258,0,0,0,2.432,1.681,8.391,8.391,0,0,0,3.263.574q4.469,0,4.469-3.283a3.053,3.053,0,0,0-1.325-2.69,7.506,7.506,0,0,0-4.173-.91h-1.187v-4.549h1.305a5.774,5.774,0,0,0,3.461-.91,2.844,2.844,0,0,0,1.246-2.413,2.306,2.306,0,0,0-.91-1.978,3.969,3.969,0,0,0-2.413-.672,5.749,5.749,0,0,0-2.947.771,6.571,6.571,0,0,0-2.235,2.195l-3.995-4.588a7.223,7.223,0,0,1,1.661-1.543,10.819,10.819,0,0,1,2.334-1.206,16.24,16.24,0,0,1,2.808-.771,17.042,17.042,0,0,1,3.085-.277,14.008,14.008,0,0,1,3.837.495,8.9,8.9,0,0,1,2.966,1.424,6.627,6.627,0,0,1,1.9,2.215,6.1,6.1,0,0,1,.672,2.868,6.74,6.74,0,0,1-.376,2.255,6.894,6.894,0,0,1-1.048,1.938,5.969,5.969,0,0,1-1.6,1.443A5.774,5.774,0,0,1,315,223.474Z" transform="translate(-300.406 -210.065)" fill="#f9bf00"/>
    </g>
  </g>
</svg>
