<svg xmlns="http://www.w3.org/2000/svg" width="201.198" height="122.556" viewBox="0 0 201.198 122.556">
  <g id="Group_28" data-name="Group 28" transform="translate(-1331.901 -2224.501)">
    <g id="Group_27" data-name="Group 27">
      <g id="ambulance-svgrepo-com" transform="translate(1331.901 2144.164)">
        <g id="Layer_2_42_" transform="translate(0 80.338)">
          <g id="Group_7" data-name="Group 7">
            <path id="Path_12" data-name="Path 12" d="M106.042,106.052a12.505,12.505,0,0,1,1.227-5.152c-.134-.008-.268-.021-.4-.021H87.322a6.467,6.467,0,0,0-6.335,5.17l.065,0h24.99Z" transform="translate(-41.348 -90.825)" fill="#4b4c4d"/>
            <path id="Path_13" data-name="Path 13" d="M64.686,111.717c0-.095,0-.189.007-.283H39.7l-.065,0c-.927-.037-12.661-.33-17.845,7.839-5.4,8.508-6.843,15.263-14.932,27.748C.781,156.157.182,160.391.182,165.857S0,175.117,0,185.043s6.2,13.894,15.034,13.894h8.214a19.177,19.177,0,0,1,38.341,0h3.1Zm-7.193,47.9-34.5-.112c-2.862-.009-6.284-3.346-3.684-9.072,3.492-7.065,7.548-14.74,9.294-17.491,3.075-4.846,10.2-4.464,10.2-4.464H57.612Z" transform="translate(0 -96.208)" fill="#ff5252"/>
            <path id="Path_14" data-name="Path 14" d="M66.5,251.734a19.328,19.328,0,0,0-19.32,18.837c0,.165-.013.33-.013.5a19.333,19.333,0,0,0,38.666,0c0-.166-.008-.331-.012-.5A19.329,19.329,0,0,0,66.5,251.734Zm10.277,19.333A10.277,10.277,0,1,1,66.5,260.79,10.276,10.276,0,0,1,76.777,271.067Z" transform="translate(-24.081 -167.845)" fill="#4b4c4d"/>
            <circle id="Ellipse_1" data-name="Ellipse 1" cx="10.523" cy="10.523" r="10.523" transform="translate(31.896 92.699)" fill="#73787c"/>
            <path id="Path_15" data-name="Path 15" d="M47.783,150.721c-1.746,2.752-5.8,10.426-9.294,17.491-2.6,5.727.822,9.064,3.684,9.072l34.5.112.119-31.139H57.985S50.858,145.875,47.783,150.721Z" transform="translate(-19.179 -113.99)" fill="#fff"/>
            <path id="Path_16" data-name="Path 16" d="M255.6,86.356H144.216a12.565,12.565,0,0,0-11.33,7.128,20.25,20.25,0,0,0-1.723,5.436v87.22l69.876.056c0-.019,0-.037,0-.056a19.183,19.183,0,1,1,38.366,0c0,.029,0,.058,0,.087l16.2.013a12.564,12.564,0,0,0,12.564-12.564V98.92A12.564,12.564,0,0,0,255.6,86.356Zm-39.5,46.5a4.811,4.811,0,0,1-4.811,4.811H203.65V145.3a4.811,4.811,0,0,1-4.811,4.812h-3.217a4.812,4.812,0,0,1-4.812-4.812v-7.638h-7.638a4.811,4.811,0,0,1-4.811-4.811v-3.218a4.812,4.812,0,0,1,4.811-4.811h7.638v-7.637a4.811,4.811,0,0,1,4.812-4.811h3.217a4.811,4.811,0,0,1,4.811,4.811v7.637h7.638a4.811,4.811,0,0,1,4.811,4.811v3.218Z" transform="translate(-66.965 -83.411)" fill="#e74424"/>
            <path id="Path_17" data-name="Path 17" d="M292.95,250.727a19.333,19.333,0,0,0-19.333,19.333c0,.019,0,.038,0,.057a19.331,19.331,0,0,0,38.662.031c0-.029,0-.058,0-.088A19.333,19.333,0,0,0,292.95,250.727Zm0,29.609a10.277,10.277,0,1,1,10.277-10.276A10.277,10.277,0,0,1,292.95,280.336Z" transform="translate(-139.696 -167.331)" fill="#4b4c4d"/>
            <circle id="Ellipse_2" data-name="Ellipse 2" cx="10.523" cy="10.523" r="10.523" transform="translate(142.731 92.206)" fill="#73787c"/>
            <path id="Path_18" data-name="Path 18" d="M108.831,84.775c0-2.451-2.525-4.437-5.639-4.437s-5.639,1.987-5.639,4.437v5.617h11.278V84.775Z" transform="translate(-49.806 -80.338)" fill="#e74424"/>
            <path id="Path_19" data-name="Path 19" d="M260.524,151.967h-7.638v-7.637a4.811,4.811,0,0,0-4.811-4.811h-3.217a4.811,4.811,0,0,0-4.812,4.811v7.637h-7.638a4.812,4.812,0,0,0-4.811,4.811v3.218a4.811,4.811,0,0,0,4.811,4.811h7.638v7.638a4.812,4.812,0,0,0,4.812,4.812h3.217a4.811,4.811,0,0,0,4.811-4.812v-7.638h7.638a4.81,4.81,0,0,0,4.811-4.811v-3.218A4.81,4.81,0,0,0,260.524,151.967Z" transform="translate(-116.2 -110.553)" fill="#f7f1e6"/>
          </g>
        </g>
      </g>
    </g>
  </g>
</svg>
