<svg xmlns="http://www.w3.org/2000/svg" width="128.013" height="172.401" viewBox="0 0 128.013 172.401">
  <g id="Group_26" data-name="Group 26" transform="translate(-407.994 -2185.656)">
    <g id="Group_25" data-name="Group 25">
      <g id="locations-gps-svgrepo-com" transform="translate(342.083 2185.656)">
        <g id="Group_8" data-name="Group 8" transform="translate(65.911)">
          <path id="Path_20" data-name="Path 20" d="M97.372,279.273a31.5,31.5,0,0,0-31.461,31.465c0,27.543,26.064,44.9,27.174,45.622a7.836,7.836,0,0,0,8.575,0,64.338,64.338,0,0,0,7.947-6.409c8.771-8.171,19.227-21.608,19.227-39.214A31.5,31.5,0,0,0,97.372,279.273Zm0,35.321a3.937,3.937,0,1,1,3.937-3.937A3.938,3.938,0,0,1,97.372,314.594Z" transform="translate(-65.911 -185.236)" fill="#ff5252"/>
          <path id="Path_21" data-name="Path 21" d="M97.372,0A31.5,31.5,0,0,0,65.911,31.465c0,27.543,26.064,44.9,27.174,45.622a7.836,7.836,0,0,0,8.575,0,64.33,64.33,0,0,0,7.947-6.408c8.771-8.171,19.227-21.608,19.227-39.214A31.5,31.5,0,0,0,97.372,0Zm0,35.321a3.937,3.937,0,1,1,3.937-3.937A3.938,3.938,0,0,1,97.372,35.321Z" transform="translate(-65.911)" fill="#ff5252"/>
        </g>
        <g id="Group_9" data-name="Group 9" transform="translate(65.911)">
          <path id="Path_22" data-name="Path 22" d="M65.911,31.465c0,27.543,26.064,44.9,27.174,45.622a7.833,7.833,0,0,0,4.287,1.277V35.321a3.937,3.937,0,1,1,0-7.874V0A31.5,31.5,0,0,0,65.911,31.465Z" transform="translate(-65.911)" fill="#ff0c38"/>
          <path id="Path_23" data-name="Path 23" d="M93.434,310.656a3.937,3.937,0,0,1,3.938-3.937V279.272a31.5,31.5,0,0,0-31.461,31.465c0,27.543,26.064,44.9,27.174,45.622a7.833,7.833,0,0,0,4.287,1.277V314.594A3.938,3.938,0,0,1,93.434,310.656Z" transform="translate(-65.911 -185.236)" fill="#ff0c38"/>
        </g>
        <path id="Path_24" data-name="Path 24" d="M290.682,139.657a31.5,31.5,0,0,0-31.461,31.465c0,27.543,26.064,44.9,27.174,45.622a7.836,7.836,0,0,0,8.575,0,64.339,64.339,0,0,0,7.947-6.408c8.771-8.171,19.227-21.607,19.227-39.214A31.5,31.5,0,0,0,290.682,139.657Zm0,35.321a3.937,3.937,0,1,1,3.938-3.937A3.938,3.938,0,0,1,290.682,174.978Z" transform="translate(-128.219 -92.632)" fill="#ff5252"/>
        <path id="Path_25" data-name="Path 25" d="M286.744,171.041a3.937,3.937,0,0,1,3.938-3.937V139.657a31.5,31.5,0,0,0-31.461,31.465c0,27.543,26.064,44.9,27.174,45.622a7.833,7.833,0,0,0,4.287,1.277V174.978A3.937,3.937,0,0,1,286.744,171.041Z" transform="translate(-128.219 -92.632)" fill="red"/>
      </g>
    </g>
  </g>
</svg>
